<svg width="24" height="23" viewBox="0 0 24 23" fill="none" xmlns="http://www.w3.org/2000/svg">
<path fill-rule="evenodd" clip-rule="evenodd" d="M3.16235 0H20.1624C21.8124 0 23.1624 1.35 23.1624 3V20C23.1624 21.65 21.8124 23 20.1624 23H3.16235C1.51235 23 0.162354 21.65 0.162354 20V3C0.162354 1.35 1.51235 0 3.16235 0ZM21.1624 3C21.1624 2.458 20.7044 2 20.1624 2H3.16235C2.62035 2 2.16235 2.458 2.16235 3V20C2.16235 20.542 2.62035 21 3.16235 21H20.1624C20.7044 21 21.1624 20.542 21.1624 20V3Z" fill="#C5C5C5"/>
</svg>
