<svg width="59" height="73" fill="none" xmlns="http://www.w3.org/2000/svg"><path fill-rule="evenodd" clip-rule="evenodd" d="M58.34 21.545a2.997 2.997 0 00-2.396-1.195h-38.67l-2.475-7.385H3.058c-1.6569 0-3 1.3431-3 3 0 1.6568 1.3431 3 3 3h7.424l13.5 40.285h25.159c1.6569 0 3-1.3432 3-3 0-1.6569-1.3431-3-3-3H28.299l-1.726-5.149h23.12a3.0011 3.0011 0 002.884-2.172l6.25-21.75a3.0051 3.0051 0 00-.487-2.634zm-7.781 9.681h-4.81V26.35h6.211l-1.401 4.876zM32.942 26.35v4.875h6.807V26.35h-6.807zm6.807 10.876v4.875h-6.807v-4.875h6.807zm-12.807-6.001V26.35h-7.657l1.634 4.875h6.023zm-4.013 6.001h4.013v4.875h-2.379l-1.634-4.875zm22.82 0v4.875h1.685l1.401-4.875h-3.086z" fill="#fff"/><path d="M27.406 72.875c3.1928 0 5.781-2.5883 5.781-5.781 0-3.1928-2.5882-5.781-5.781-5.781-3.1928 0-5.781 2.5882-5.781 5.781 0 3.1927 2.5882 5.781 5.781 5.781zM44.844 72.875c3.1928 0 5.781-2.5883 5.781-5.781 0-3.1928-2.5882-5.781-5.781-5.781-3.1928 0-5.781 2.5882-5.781 5.781 0 3.1927 2.5882 5.781 5.781 5.781zM29.335 10.699l7.547 5.492a1.9861 1.9861 0 002.818-.494c.646-.936.43-2.232-.48-2.895l-2.373-1.726 9.436-5.09L50.911 18h4.347L49.214 2.309a2.0509 2.0509 0 00-1.177-1.183 1.97 1.97 0 00-1.643.109L33.146 8.382l-3.022-2.199c-.8688-.6339-2.0844-.461-2.742.39l-8.481 10.798a2.1766 2.1766 0 00-.405.628h5.106l5.733-7.3z" fill="#fff"/></svg>